<mxfile host="app.diagrams.net" agent="Mozilla/5.0 (Windows NT 10.0; Win64; x64) AppleWebKit/537.36 (KHTML, like Gecko) Chrome/137.0.0.0 Safari/537.36" version="27.2.0">
  <diagram name="Page-1" id="nwsG4U57wFm8DY5CO8aC">
    <mxGraphModel grid="1" page="1" gridSize="10" guides="1" tooltips="1" connect="1" arrows="1" fold="1" pageScale="1" pageWidth="850" pageHeight="1100" math="0" shadow="0">
      <root>
        <mxCell id="0" />
        <mxCell id="1" parent="0" />
        <mxCell id="KBRyXHgBYEF5sMt-Apzo-4" value="" style="rounded=0;whiteSpace=wrap;html=1;gradientColor=light-dark(#000000,#2C5364);fillColor=default;gradientDirection=east;shadow=0;" vertex="1" parent="1">
          <mxGeometry x="-1180" y="-590" width="870" height="590" as="geometry" />
        </mxCell>
        <mxCell id="KBRyXHgBYEF5sMt-Apzo-5" value="" style="rounded=1;whiteSpace=wrap;html=1;shadow=1;fillColor=light-dark(#FFFFFF,#1B1F2B);strokeColor=light-dark(#000000,#3182CE);" vertex="1" parent="1">
          <mxGeometry x="-880" y="-560" width="300" height="530" as="geometry" />
        </mxCell>
        <mxCell id="KBRyXHgBYEF5sMt-Apzo-6" value="&lt;font style=&quot;color: light-dark(rgb(0, 0, 0), rgb(204, 231, 255)); font-size: 18px;&quot;&gt;&lt;b style=&quot;&quot;&gt;Sign Up&lt;/b&gt;&lt;/font&gt;" style="text;html=1;align=center;verticalAlign=middle;whiteSpace=wrap;rounded=0;" vertex="1" parent="1">
          <mxGeometry x="-772.5" y="-540" width="85" height="30" as="geometry" />
        </mxCell>
        <mxCell id="KBRyXHgBYEF5sMt-Apzo-7" value="&lt;font style=&quot;font-size: 16px; color: light-dark(rgb(0, 0, 0), rgb(160, 184, 214));&quot;&gt;Full Name&lt;/font&gt;" style="text;html=1;align=center;verticalAlign=middle;whiteSpace=wrap;rounded=0;" vertex="1" parent="1">
          <mxGeometry x="-850" y="-460" width="80" height="20" as="geometry" />
        </mxCell>
        <mxCell id="KBRyXHgBYEF5sMt-Apzo-8" value="" style="rounded=1;whiteSpace=wrap;html=1;fillColor=light-dark(#FFFFFF,#2E3B55);strokeColor=light-dark(#000000,#415A77);" vertex="1" parent="1">
          <mxGeometry x="-847.5" y="-430" width="235" height="20" as="geometry" />
        </mxCell>
        <mxCell id="KBRyXHgBYEF5sMt-Apzo-10" value="&lt;font style=&quot;font-size: 16px; color: light-dark(rgb(0, 0, 0), rgb(160, 184, 214));&quot;&gt;Email&lt;/font&gt;" style="text;html=1;align=center;verticalAlign=middle;whiteSpace=wrap;rounded=0;" vertex="1" parent="1">
          <mxGeometry x="-847.5" y="-380" width="45" height="20" as="geometry" />
        </mxCell>
        <mxCell id="KBRyXHgBYEF5sMt-Apzo-13" value="&lt;font style=&quot;font-size: 16px; color: light-dark(rgb(0, 0, 0), rgb(160, 184, 214));&quot;&gt;Username&lt;/font&gt;" style="text;html=1;align=center;verticalAlign=middle;whiteSpace=wrap;rounded=0;" vertex="1" parent="1">
          <mxGeometry x="-840" y="-300" width="60" height="20" as="geometry" />
        </mxCell>
        <mxCell id="KBRyXHgBYEF5sMt-Apzo-16" value="&lt;font style=&quot;font-size: 16px; color: light-dark(rgb(0, 0, 0), rgb(160, 184, 214));&quot;&gt;Password&lt;/font&gt;" style="text;html=1;align=center;verticalAlign=middle;whiteSpace=wrap;rounded=0;" vertex="1" parent="1">
          <mxGeometry x="-840" y="-230" width="60" height="20" as="geometry" />
        </mxCell>
        <mxCell id="KBRyXHgBYEF5sMt-Apzo-19" value="&lt;font style=&quot;font-size: 16px; color: light-dark(rgb(0, 0, 0), rgb(160, 184, 214));&quot;&gt;Confirm Password&lt;/font&gt;" style="text;html=1;align=center;verticalAlign=middle;whiteSpace=wrap;rounded=0;" vertex="1" parent="1">
          <mxGeometry x="-850" y="-160" width="135" height="20" as="geometry" />
        </mxCell>
        <mxCell id="KBRyXHgBYEF5sMt-Apzo-21" value="&lt;span style=&quot;font-size: 16px;&quot;&gt;Create Account&lt;/span&gt;" style="rounded=1;whiteSpace=wrap;html=1;fillColor=light-dark(#FFFFFF,#3182CE);strokeColor=light-dark(#000000,#3182CE);" vertex="1" parent="1">
          <mxGeometry x="-820" y="-90" width="190" height="30" as="geometry" />
        </mxCell>
        <mxCell id="KBRyXHgBYEF5sMt-Apzo-23" value="" style="rounded=1;whiteSpace=wrap;html=1;fillColor=light-dark(#FFFFFF,#2E3B55);strokeColor=light-dark(#000000,#415A77);" vertex="1" parent="1">
          <mxGeometry x="-847.5" y="-350" width="235" height="20" as="geometry" />
        </mxCell>
        <mxCell id="KBRyXHgBYEF5sMt-Apzo-24" value="" style="rounded=1;whiteSpace=wrap;html=1;fillColor=light-dark(#FFFFFF,#2E3B55);strokeColor=light-dark(#000000,#415A77);" vertex="1" parent="1">
          <mxGeometry x="-850" y="-270" width="235" height="20" as="geometry" />
        </mxCell>
        <mxCell id="KBRyXHgBYEF5sMt-Apzo-29" value="" style="rounded=1;whiteSpace=wrap;html=1;fillColor=light-dark(#FFFFFF,#2E3B55);strokeColor=light-dark(#000000,#415A77);" vertex="1" parent="1">
          <mxGeometry x="-850" y="-200" width="235" height="20" as="geometry" />
        </mxCell>
        <mxCell id="KBRyXHgBYEF5sMt-Apzo-30" value="" style="rounded=1;whiteSpace=wrap;html=1;fillColor=light-dark(#FFFFFF,#2E3B55);strokeColor=light-dark(#000000,#415A77);" vertex="1" parent="1">
          <mxGeometry x="-850" y="-130" width="235" height="20" as="geometry" />
        </mxCell>
        <mxCell id="KBRyXHgBYEF5sMt-Apzo-31" value="" style="rounded=0;whiteSpace=wrap;html=1;gradientColor=light-dark(#000000,#2C5364);fillColor=default;gradientDirection=east;shadow=0;" vertex="1" parent="1">
          <mxGeometry x="880" y="-430" width="700" height="450" as="geometry" />
        </mxCell>
        <mxCell id="BzrFDkvv9F8TvWqhl2Q9-1" value="" style="rounded=1;whiteSpace=wrap;html=1;shadow=1;fillColor=light-dark(#FFFFFF,#1B1F2B);strokeColor=light-dark(#000000,#3182CE);" vertex="1" parent="1">
          <mxGeometry x="1060" y="-370" width="320" height="340" as="geometry" />
        </mxCell>
        <mxCell id="BzrFDkvv9F8TvWqhl2Q9-4" value="&lt;font style=&quot;font-size: 14px;&quot;&gt;&lt;font style=&quot;color: light-dark(rgb(0, 0, 0), rgb(157, 183, 215));&quot;&gt;Already have an account?&lt;/font&gt;&lt;font style=&quot;color: light-dark(rgb(0, 0, 0), rgb(99, 179, 237));&quot;&gt; Login Here&lt;/font&gt;&lt;/font&gt;" style="text;html=1;align=center;verticalAlign=middle;whiteSpace=wrap;rounded=0;" vertex="1" parent="1">
          <mxGeometry x="-860" y="-510" width="260" height="30" as="geometry" />
        </mxCell>
        <mxCell id="BzrFDkvv9F8TvWqhl2Q9-6" value="&lt;font style=&quot;color: light-dark(rgb(204, 231, 255), rgb(204, 231, 255));&quot;&gt;&lt;span style=&quot;font-size: 18px;&quot;&gt;&lt;b style=&quot;&quot;&gt;Login&lt;/b&gt;&lt;/span&gt;&lt;/font&gt;" style="text;html=1;align=center;verticalAlign=middle;whiteSpace=wrap;rounded=0;" vertex="1" parent="1">
          <mxGeometry x="1180" y="-340" width="85" height="30" as="geometry" />
        </mxCell>
        <mxCell id="BzrFDkvv9F8TvWqhl2Q9-7" value="&lt;font&gt;&lt;span style=&quot;font-size: 14px;&quot;&gt;&lt;font style=&quot;color: light-dark(rgb(157, 183, 215), rgb(157, 183, 215));&quot;&gt;Don&#39;t have an account? &lt;/font&gt;&lt;font style=&quot;color: light-dark(rgb(157, 183, 215), rgb(99, 179, 237));&quot;&gt;Sign Up&lt;/font&gt;&lt;/span&gt;&lt;/font&gt;" style="text;html=1;align=center;verticalAlign=middle;whiteSpace=wrap;rounded=0;" vertex="1" parent="1">
          <mxGeometry x="1087.5" y="-310" width="260" height="30" as="geometry" />
        </mxCell>
        <mxCell id="BzrFDkvv9F8TvWqhl2Q9-8" value="&lt;font style=&quot;color: light-dark(rgb(160, 184, 214), rgb(160, 184, 214));&quot;&gt;&lt;span style=&quot;font-size: 16px;&quot;&gt;Username or Email&lt;/span&gt;&lt;/font&gt;" style="text;html=1;align=center;verticalAlign=middle;whiteSpace=wrap;rounded=0;" vertex="1" parent="1">
          <mxGeometry x="1100" y="-260" width="150" height="20" as="geometry" />
        </mxCell>
        <mxCell id="BzrFDkvv9F8TvWqhl2Q9-9" value="" style="rounded=1;whiteSpace=wrap;html=1;fillColor=light-dark(#FFFFFF,#2E3B55);strokeColor=light-dark(#000000,#415A77);" vertex="1" parent="1">
          <mxGeometry x="1100" y="-230" width="235" height="20" as="geometry" />
        </mxCell>
        <mxCell id="BzrFDkvv9F8TvWqhl2Q9-10" value="&lt;font style=&quot;color: light-dark(rgb(160, 184, 214), rgb(160, 184, 214));&quot;&gt;&lt;span style=&quot;font-size: 16px;&quot;&gt;Password&lt;/span&gt;&lt;/font&gt;" style="text;html=1;align=center;verticalAlign=middle;whiteSpace=wrap;rounded=0;" vertex="1" parent="1">
          <mxGeometry x="1100" y="-180" width="80" height="20" as="geometry" />
        </mxCell>
        <mxCell id="BzrFDkvv9F8TvWqhl2Q9-11" value="" style="rounded=1;whiteSpace=wrap;html=1;fillColor=light-dark(#FFFFFF,#2E3B55);strokeColor=light-dark(#000000,#415A77);" vertex="1" parent="1">
          <mxGeometry x="1100" y="-150" width="235" height="20" as="geometry" />
        </mxCell>
        <mxCell id="BzrFDkvv9F8TvWqhl2Q9-12" value="&lt;font style=&quot;font-size: 13px; color: light-dark(rgb(0, 0, 0), rgb(99, 179, 237));&quot;&gt;Forgot Password?&lt;/font&gt;" style="text;html=1;align=center;verticalAlign=middle;whiteSpace=wrap;rounded=0;" vertex="1" parent="1">
          <mxGeometry x="1100" y="-130" width="110" height="20" as="geometry" />
        </mxCell>
        <mxCell id="BzrFDkvv9F8TvWqhl2Q9-14" value="&lt;span style=&quot;font-size: 16px;&quot;&gt;Login&lt;/span&gt;" style="rounded=1;whiteSpace=wrap;html=1;fillColor=light-dark(#FFFFFF,#3182CE);strokeColor=light-dark(#000000,#3182CE);" vertex="1" parent="1">
          <mxGeometry x="1230" y="-90" width="105" height="30" as="geometry" />
        </mxCell>
        <mxCell id="BzrFDkvv9F8TvWqhl2Q9-15" value="&lt;span style=&quot;font-size: 16px;&quot;&gt;Cancel&lt;/span&gt;" style="rounded=1;whiteSpace=wrap;html=1;fillColor=light-dark(#FFFFFF,#3182CE);strokeColor=light-dark(#000000,#3182CE);" vertex="1" parent="1">
          <mxGeometry x="1105" y="-90" width="115" height="30" as="geometry" />
        </mxCell>
        <mxCell id="BzrFDkvv9F8TvWqhl2Q9-16" value="" style="rounded=0;whiteSpace=wrap;html=1;gradientColor=light-dark(#000000,#2C5364);fillColor=default;gradientDirection=east;shadow=0;" vertex="1" parent="1">
          <mxGeometry x="880" y="450" width="730" height="430" as="geometry" />
        </mxCell>
        <mxCell id="BzrFDkvv9F8TvWqhl2Q9-17" value="" style="rounded=1;whiteSpace=wrap;html=1;shadow=1;fillColor=light-dark(#FFFFFF,#1B1F2B);strokeColor=light-dark(#000000,#3182CE);" vertex="1" parent="1">
          <mxGeometry x="1030" y="515" width="430" height="295" as="geometry" />
        </mxCell>
        <mxCell id="BzrFDkvv9F8TvWqhl2Q9-18" value="&lt;font style=&quot;color: light-dark(rgb(204, 231, 255), rgb(204, 231, 255));&quot;&gt;&lt;span style=&quot;font-size: 18px;&quot;&gt;&lt;b style=&quot;&quot;&gt;Forgot Password&lt;/b&gt;&lt;/span&gt;&lt;/font&gt;" style="text;html=1;align=center;verticalAlign=middle;whiteSpace=wrap;rounded=0;" vertex="1" parent="1">
          <mxGeometry x="1165" y="545" width="160" height="30" as="geometry" />
        </mxCell>
        <mxCell id="BzrFDkvv9F8TvWqhl2Q9-19" value="&lt;font color=&quot;#a0b8d6&quot;&gt;&lt;span style=&quot;font-size: 15px;&quot;&gt;Enter your email to reset your password.&lt;/span&gt;&lt;/font&gt;" style="text;html=1;align=center;verticalAlign=middle;whiteSpace=wrap;rounded=0;" vertex="1" parent="1">
          <mxGeometry x="1100" y="580" width="290" height="20" as="geometry" />
        </mxCell>
        <mxCell id="BzrFDkvv9F8TvWqhl2Q9-20" value="&lt;font style=&quot;color: light-dark(rgb(160, 184, 214), rgb(160, 184, 214));&quot;&gt;&lt;span style=&quot;font-size: 16px;&quot;&gt;Email Address&lt;/span&gt;&lt;/font&gt;" style="text;html=1;align=center;verticalAlign=middle;whiteSpace=wrap;rounded=0;" vertex="1" parent="1">
          <mxGeometry x="1070" y="630" width="120" height="20" as="geometry" />
        </mxCell>
        <mxCell id="BzrFDkvv9F8TvWqhl2Q9-21" value="" style="rounded=1;whiteSpace=wrap;html=1;fillColor=light-dark(#FFFFFF,#2E3B55);strokeColor=light-dark(#000000,#415A77);" vertex="1" parent="1">
          <mxGeometry x="1080" y="660" width="330" height="30" as="geometry" />
        </mxCell>
        <mxCell id="BzrFDkvv9F8TvWqhl2Q9-22" value="&lt;span style=&quot;font-size: 16px;&quot;&gt;Send Reset Link&lt;/span&gt;" style="rounded=1;whiteSpace=wrap;html=1;fillColor=light-dark(#FFFFFF,#3182CE);strokeColor=light-dark(#000000,#3182CE);" vertex="1" parent="1">
          <mxGeometry x="1090" y="710" width="300" height="30" as="geometry" />
        </mxCell>
        <mxCell id="BzrFDkvv9F8TvWqhl2Q9-23" value="&lt;font&gt;&lt;span style=&quot;font-size: 14px;&quot;&gt;&lt;font style=&quot;color: light-dark(rgb(157, 183, 215), rgb(157, 183, 215));&quot;&gt;&amp;nbsp;&lt;/font&gt;&lt;font color=&quot;#63b3ed&quot; style=&quot;&quot;&gt;Back to Login&lt;/font&gt;&lt;/span&gt;&lt;/font&gt;" style="text;html=1;align=center;verticalAlign=middle;whiteSpace=wrap;rounded=0;" vertex="1" parent="1">
          <mxGeometry x="1175" y="750" width="130" height="30" as="geometry" />
        </mxCell>
        <mxCell id="BzrFDkvv9F8TvWqhl2Q9-25" value="" style="rounded=0;whiteSpace=wrap;html=1;gradientColor=light-dark(#000000,#2C5364);fillColor=default;gradientDirection=east;shadow=0;" vertex="1" parent="1">
          <mxGeometry x="-80" y="160" width="700" height="450" as="geometry" />
        </mxCell>
        <mxCell id="BzrFDkvv9F8TvWqhl2Q9-26" value="&lt;span style=&quot;font-size: 48px;&quot;&gt;&lt;font style=&quot;color: light-dark(rgb(0, 0, 0), rgb(204, 231, 255));&quot;&gt;Welcome&lt;/font&gt;&lt;/span&gt;" style="text;html=1;align=center;verticalAlign=middle;whiteSpace=wrap;rounded=0;" vertex="1" parent="1">
          <mxGeometry x="160" y="280" width="210" height="110" as="geometry" />
        </mxCell>
        <mxCell id="BzrFDkvv9F8TvWqhl2Q9-28" value="&lt;span style=&quot;font-size: 16px;&quot;&gt;Sign Up&lt;/span&gt;" style="rounded=1;whiteSpace=wrap;html=1;fillColor=light-dark(#FFFFFF,#3182CE);strokeColor=light-dark(#000000,#3182CE);" vertex="1" parent="1">
          <mxGeometry x="160" y="375" width="90" height="30" as="geometry" />
        </mxCell>
        <mxCell id="BzrFDkvv9F8TvWqhl2Q9-29" value="&lt;span style=&quot;font-size: 16px;&quot;&gt;Login&lt;/span&gt;" style="rounded=1;whiteSpace=wrap;html=1;fillColor=light-dark(#FFFFFF,#3182CE);strokeColor=light-dark(#000000,#3182CE);" vertex="1" parent="1">
          <mxGeometry x="280" y="375" width="90" height="30" as="geometry" />
        </mxCell>
        <mxCell id="BzrFDkvv9F8TvWqhl2Q9-30" value="&lt;font style=&quot;font-size: 14px; color: light-dark(rgb(0, 0, 0), rgb(99, 179, 237));&quot;&gt;About&lt;/font&gt;" style="text;html=1;align=center;verticalAlign=middle;whiteSpace=wrap;rounded=0;" vertex="1" parent="1">
          <mxGeometry x="190" y="560" width="60" height="30" as="geometry" />
        </mxCell>
        <mxCell id="BzrFDkvv9F8TvWqhl2Q9-31" value="&lt;font style=&quot;font-size: 14px; color: light-dark(rgb(0, 0, 0), rgb(99, 179, 237));&quot;&gt;Contact Us&lt;/font&gt;" style="text;html=1;align=center;verticalAlign=middle;whiteSpace=wrap;rounded=0;" vertex="1" parent="1">
          <mxGeometry x="260" y="560" width="80" height="30" as="geometry" />
        </mxCell>
        <mxCell id="BzrFDkvv9F8TvWqhl2Q9-34" value="" style="rounded=0;whiteSpace=wrap;html=1;gradientColor=light-dark(#000000,#2C5364);fillColor=default;gradientDirection=east;shadow=0;" vertex="1" parent="1">
          <mxGeometry x="-1210" y="770" width="850" height="520" as="geometry" />
        </mxCell>
        <mxCell id="BzrFDkvv9F8TvWqhl2Q9-35" value="&lt;font style=&quot;font-size: 36px; color: light-dark(rgb(0, 0, 0), rgb(127, 179, 255));&quot;&gt;&lt;b&gt;About Us&lt;/b&gt;&lt;/font&gt;" style="text;html=1;align=center;verticalAlign=middle;whiteSpace=wrap;rounded=0;" vertex="1" parent="1">
          <mxGeometry x="-880" y="800" width="170" height="30" as="geometry" />
        </mxCell>
        <mxCell id="BzrFDkvv9F8TvWqhl2Q9-48" value="" style="rounded=1;whiteSpace=wrap;html=1;fillColor=light-dark(#FFFFFF,#1B1F2B);" vertex="1" parent="1">
          <mxGeometry x="-1140" y="860" width="720" height="400" as="geometry" />
        </mxCell>
        <mxCell id="BzrFDkvv9F8TvWqhl2Q9-49" value="&lt;font style=&quot;color: light-dark(rgb(0, 0, 0), rgb(163, 204, 255)); font-size: 24px;&quot;&gt;Who We Are&lt;/font&gt;" style="text;html=1;align=center;verticalAlign=middle;whiteSpace=wrap;rounded=0;" vertex="1" parent="1">
          <mxGeometry x="-1100" y="890" width="150" height="30" as="geometry" />
        </mxCell>
        <mxCell id="BzrFDkvv9F8TvWqhl2Q9-50" value="&lt;div style=&quot;text-align: justify;&quot;&gt;&lt;font style=&quot;font-size: 13px; color: light-dark(rgb(0, 0, 0), rgb(208, 224, 245));&quot;&gt;We are a forward-thinking tech company dedicated to crafting modern digital solutions for everyday problems.&lt;/font&gt;&lt;/div&gt;&lt;div style=&quot;text-align: justify;&quot;&gt;&lt;font style=&quot;font-size: 13px; color: light-dark(rgb(0, 0, 0), rgb(208, 224, 245));&quot;&gt;&amp;nbsp;Our focus is on usability, performance, and innovation — building tools that simplify life, whether it&#39;s through apps, websites, or smart systems.&lt;/font&gt;&lt;/div&gt;" style="text;html=1;align=center;verticalAlign=middle;whiteSpace=wrap;rounded=0;" vertex="1" parent="1">
          <mxGeometry x="-1090" y="920" width="640" height="60" as="geometry" />
        </mxCell>
        <mxCell id="BzrFDkvv9F8TvWqhl2Q9-51" value="&lt;font style=&quot;color: light-dark(rgb(163, 204, 255), rgb(163, 204, 255));&quot;&gt;&lt;span style=&quot;font-size: 24px;&quot;&gt;Our Vision&lt;/span&gt;&lt;/font&gt;" style="text;html=1;align=center;verticalAlign=middle;whiteSpace=wrap;rounded=0;" vertex="1" parent="1">
          <mxGeometry x="-1100" y="1010" width="130" height="30" as="geometry" />
        </mxCell>
        <mxCell id="BzrFDkvv9F8TvWqhl2Q9-52" value="&lt;div style=&quot;text-align: justify;&quot;&gt;&lt;font style=&quot;font-size: 13px;&quot;&gt;Our vision is to become a global leader in user-first digital experiences. We believe that technology should&lt;/font&gt;&lt;/div&gt;&lt;div style=&quot;text-align: justify;&quot;&gt;&lt;font style=&quot;font-size: 13px;&quot;&gt;empower, not complicate. That&#39;s why we&#39;re committed to creating seamless, accessible, and intuitive interfaces for all.&lt;/font&gt;&lt;/div&gt;" style="text;html=1;align=center;verticalAlign=middle;whiteSpace=wrap;rounded=0;" vertex="1" parent="1">
          <mxGeometry x="-1090" y="1050" width="620" height="50" as="geometry" />
        </mxCell>
        <mxCell id="BzrFDkvv9F8TvWqhl2Q9-53" value="&lt;font style=&quot;font-size: 24px; color: light-dark(rgb(0, 0, 0), rgb(163, 204, 255));&quot;&gt;Our Founder&lt;/font&gt;" style="text;html=1;align=center;verticalAlign=middle;whiteSpace=wrap;rounded=0;" vertex="1" parent="1">
          <mxGeometry x="-1090" y="1110" width="140" height="30" as="geometry" />
        </mxCell>
        <mxCell id="BzrFDkvv9F8TvWqhl2Q9-54" value="&lt;div style=&quot;text-align: justify;&quot;&gt;Our founder, Jane Arora, started this journey with a simple mission: to make quality technology accessible to everyone.&lt;/div&gt;&lt;div style=&quot;text-align: justify;&quot;&gt;With a background in design and software engineering, she brings a unique blend of creativity and precision to the&amp;nbsp; team.&lt;span style=&quot;background-color: transparent; color: light-dark(rgb(0, 0, 0), rgb(255, 255, 255));&quot;&gt;&amp;nbsp;Her leadership has helped transform ideas into impact across industries.&lt;/span&gt;&lt;/div&gt;&lt;div style=&quot;text-align: justify;&quot;&gt;&lt;br&gt;&lt;/div&gt;" style="text;html=1;align=center;verticalAlign=middle;whiteSpace=wrap;rounded=0;" vertex="1" parent="1">
          <mxGeometry x="-1090" y="1150" width="640" height="60" as="geometry" />
        </mxCell>
        <mxCell id="BzrFDkvv9F8TvWqhl2Q9-55" value="&lt;font style=&quot;color: light-dark(rgb(0, 0, 0), rgb(99, 179, 237));&quot;&gt;Back To Home&lt;/font&gt;" style="text;html=1;align=center;verticalAlign=middle;whiteSpace=wrap;rounded=0;" vertex="1" parent="1">
          <mxGeometry x="-1090" y="1210" width="80" height="30" as="geometry" />
        </mxCell>
        <mxCell id="BzrFDkvv9F8TvWqhl2Q9-56" value="" style="rounded=0;whiteSpace=wrap;html=1;gradientColor=light-dark(#000000,#2C5364);fillColor=default;gradientDirection=east;shadow=0;" vertex="1" parent="1">
          <mxGeometry x="-160" y="1100" width="860" height="620" as="geometry" />
        </mxCell>
        <mxCell id="BzrFDkvv9F8TvWqhl2Q9-57" value="" style="rounded=1;whiteSpace=wrap;html=1;shadow=1;fillColor=light-dark(#FFFFFF,#1B1F2B);strokeColor=light-dark(#000000,#3182CE);" vertex="1" parent="1">
          <mxGeometry x="-20" y="1140" width="600" height="540" as="geometry" />
        </mxCell>
        <mxCell id="BzrFDkvv9F8TvWqhl2Q9-58" value="&lt;font style=&quot;color: light-dark(rgb(127, 179, 255), rgb(127, 179, 255));&quot;&gt;&lt;span style=&quot;font-size: 36px;&quot;&gt;&lt;b style=&quot;&quot;&gt;Contact Us&lt;/b&gt;&lt;/span&gt;&lt;/font&gt;" style="text;html=1;align=center;verticalAlign=middle;whiteSpace=wrap;rounded=0;" vertex="1" parent="1">
          <mxGeometry x="170" y="1160" width="210" height="30" as="geometry" />
        </mxCell>
        <mxCell id="BzrFDkvv9F8TvWqhl2Q9-60" value="&lt;font style=&quot;color: light-dark(rgb(0, 0, 0), rgb(208, 224, 245));&quot;&gt;If you have any question s, feedback, or just want to say hello feel free to reach out !&amp;nbsp;&lt;/font&gt;" style="text;html=1;align=center;verticalAlign=middle;whiteSpace=wrap;rounded=0;" vertex="1" parent="1">
          <mxGeometry x="40" y="1190" width="490" height="30" as="geometry" />
        </mxCell>
        <mxCell id="BzrFDkvv9F8TvWqhl2Q9-62" value="&lt;font style=&quot;color: light-dark(rgb(160, 184, 214), rgb(160, 184, 214));&quot;&gt;&lt;span style=&quot;font-size: 16px;&quot;&gt;Your Name&lt;/span&gt;&lt;/font&gt;" style="text;html=1;align=center;verticalAlign=middle;whiteSpace=wrap;rounded=0;" vertex="1" parent="1">
          <mxGeometry x="20" y="1240" width="100" height="20" as="geometry" />
        </mxCell>
        <mxCell id="BzrFDkvv9F8TvWqhl2Q9-63" value="" style="rounded=1;whiteSpace=wrap;html=1;fillColor=light-dark(#FFFFFF,#2E3B55);strokeColor=light-dark(#000000,#415A77);" vertex="1" parent="1">
          <mxGeometry x="25" y="1270" width="500" height="30" as="geometry" />
        </mxCell>
        <mxCell id="BzrFDkvv9F8TvWqhl2Q9-64" value="&lt;font style=&quot;color: light-dark(rgb(160, 184, 214), rgb(160, 184, 214));&quot;&gt;&lt;span style=&quot;font-size: 16px;&quot;&gt;Your Email&lt;/span&gt;&lt;/font&gt;" style="text;html=1;align=center;verticalAlign=middle;whiteSpace=wrap;rounded=0;" vertex="1" parent="1">
          <mxGeometry x="20" y="1330" width="100" height="20" as="geometry" />
        </mxCell>
        <mxCell id="BzrFDkvv9F8TvWqhl2Q9-65" value="" style="rounded=1;whiteSpace=wrap;html=1;fillColor=light-dark(#FFFFFF,#2E3B55);strokeColor=light-dark(#000000,#415A77);" vertex="1" parent="1">
          <mxGeometry x="25" y="1360" width="500" height="30" as="geometry" />
        </mxCell>
        <mxCell id="BzrFDkvv9F8TvWqhl2Q9-66" value="&lt;font style=&quot;color: light-dark(rgb(160, 184, 214), rgb(160, 184, 214));&quot;&gt;&lt;span style=&quot;font-size: 16px;&quot;&gt;Your Message&lt;/span&gt;&lt;/font&gt;" style="text;html=1;align=center;verticalAlign=middle;whiteSpace=wrap;rounded=0;" vertex="1" parent="1">
          <mxGeometry x="20" y="1420" width="120" height="20" as="geometry" />
        </mxCell>
        <mxCell id="BzrFDkvv9F8TvWqhl2Q9-67" value="" style="rounded=1;whiteSpace=wrap;html=1;fillColor=light-dark(#FFFFFF,#2E3B55);strokeColor=light-dark(#000000,#415A77);" vertex="1" parent="1">
          <mxGeometry x="25" y="1450" width="500" height="30" as="geometry" />
        </mxCell>
        <mxCell id="BzrFDkvv9F8TvWqhl2Q9-68" value="&lt;span style=&quot;font-size: 16px;&quot;&gt;Send Message&lt;/span&gt;" style="rounded=1;whiteSpace=wrap;html=1;fillColor=light-dark(#FFFFFF,#3182CE);strokeColor=light-dark(#000000,#3182CE);" vertex="1" parent="1">
          <mxGeometry x="130" y="1510" width="300" height="30" as="geometry" />
        </mxCell>
        <mxCell id="BzrFDkvv9F8TvWqhl2Q9-69" value="&lt;font style=&quot;color: light-dark(rgb(0, 0, 0), rgb(99, 179, 237));&quot;&gt;Back To Home&lt;/font&gt;" style="text;html=1;align=center;verticalAlign=middle;whiteSpace=wrap;rounded=0;" vertex="1" parent="1">
          <mxGeometry x="30" y="1590" width="80" height="30" as="geometry" />
        </mxCell>
        <mxCell id="ujzDKPek5OF13hK7ME_E-1" value="&lt;font style=&quot;font-size: 13px; color: light-dark(rgb(0, 0, 0), rgb(160, 184, 214));&quot;&gt;Contact Details:&lt;/font&gt;&lt;div&gt;&lt;font style=&quot;font-size: 13px; color: light-dark(rgb(0, 0, 0), rgb(160, 184, 214));&quot;&gt;Name-Arshpreet&lt;/font&gt;&lt;/div&gt;&lt;div&gt;&lt;font style=&quot;font-size: 13px; color: light-dark(rgb(0, 0, 0), rgb(160, 184, 214));&quot;&gt;Phone No.-7814248492&lt;/font&gt;&lt;/div&gt;&lt;div&gt;&lt;font style=&quot;font-size: 13px; color: light-dark(rgb(0, 0, 0), rgb(160, 184, 214));&quot;&gt;Email ID-abc.123@gmail.com&lt;/font&gt;&lt;/div&gt;" style="text;html=1;align=left;verticalAlign=middle;whiteSpace=wrap;rounded=0;" vertex="1" parent="1">
          <mxGeometry x="360" y="1570" width="180" height="70" as="geometry" />
        </mxCell>
        <mxCell id="ujzDKPek5OF13hK7ME_E-8" value="" style="endArrow=classic;html=1;rounded=0;" edge="1" parent="1" target="ujzDKPek5OF13hK7ME_E-9">
          <mxGeometry width="50" height="50" relative="1" as="geometry">
            <mxPoint x="150" y="390" as="sourcePoint" />
            <mxPoint x="-580" y="-650" as="targetPoint" />
            <Array as="points">
              <mxPoint x="-200" y="390" />
              <mxPoint x="-200" y="-640" />
            </Array>
          </mxGeometry>
        </mxCell>
        <mxCell id="ujzDKPek5OF13hK7ME_E-9" value="&lt;font style=&quot;font-size: 36px;&quot;&gt;Sign Up&lt;/font&gt;" style="text;html=1;align=center;verticalAlign=middle;whiteSpace=wrap;rounded=0;" vertex="1" parent="1">
          <mxGeometry x="-850" y="-670" width="210" height="60" as="geometry" />
        </mxCell>
        <mxCell id="ujzDKPek5OF13hK7ME_E-13" value="" style="edgeStyle=elbowEdgeStyle;elbow=horizontal;endArrow=classic;html=1;curved=0;rounded=0;endSize=8;startSize=8;exitX=1;exitY=1;exitDx=0;exitDy=0;" edge="1" parent="1">
          <mxGeometry width="50" height="50" relative="1" as="geometry">
            <mxPoint x="370" y="390" as="sourcePoint" />
            <mxPoint x="1090" y="-490" as="targetPoint" />
            <Array as="points">
              <mxPoint x="720" y="270" />
            </Array>
          </mxGeometry>
        </mxCell>
        <mxCell id="ujzDKPek5OF13hK7ME_E-15" value="&lt;span style=&quot;font-size: 36px;&quot;&gt;Login&lt;/span&gt;" style="text;html=1;align=center;verticalAlign=middle;whiteSpace=wrap;rounded=0;" vertex="1" parent="1">
          <mxGeometry x="1120" y="-500" width="155" height="60" as="geometry" />
        </mxCell>
        <mxCell id="ujzDKPek5OF13hK7ME_E-21" value="" style="edgeStyle=segmentEdgeStyle;endArrow=classic;html=1;curved=0;rounded=0;endSize=8;startSize=8;exitX=0.243;exitY=0.756;exitDx=0;exitDy=0;exitPerimeter=0;" edge="1" parent="1">
          <mxGeometry width="50" height="50" relative="1" as="geometry">
            <mxPoint x="155.10000000000036" y="574.9999999999998" as="sourcePoint" />
            <mxPoint x="-790" y="680" as="targetPoint" />
            <Array as="points">
              <mxPoint x="-790" y="575" />
            </Array>
          </mxGeometry>
        </mxCell>
        <mxCell id="ujzDKPek5OF13hK7ME_E-22" value="&lt;span style=&quot;font-size: 36px;&quot;&gt;About Us&lt;/span&gt;" style="text;html=1;align=center;verticalAlign=middle;whiteSpace=wrap;rounded=0;" vertex="1" parent="1">
          <mxGeometry x="-900" y="690" width="210" height="60" as="geometry" />
        </mxCell>
        <mxCell id="ujzDKPek5OF13hK7ME_E-24" value="" style="endArrow=classic;html=1;rounded=0;exitX=0.5;exitY=1;exitDx=0;exitDy=0;" edge="1" parent="1" source="BzrFDkvv9F8TvWqhl2Q9-31">
          <mxGeometry width="50" height="50" relative="1" as="geometry">
            <mxPoint x="300" y="870" as="sourcePoint" />
            <mxPoint x="300" y="1030" as="targetPoint" />
          </mxGeometry>
        </mxCell>
        <mxCell id="ujzDKPek5OF13hK7ME_E-25" value="&lt;span style=&quot;font-size: 36px;&quot;&gt;Contact Us&lt;/span&gt;" style="text;html=1;align=center;verticalAlign=middle;whiteSpace=wrap;rounded=0;" vertex="1" parent="1">
          <mxGeometry x="165" y="1040" width="210" height="60" as="geometry" />
        </mxCell>
        <mxCell id="ujzDKPek5OF13hK7ME_E-27" value="" style="edgeStyle=segmentEdgeStyle;endArrow=classic;html=1;curved=0;rounded=0;endSize=8;startSize=8;exitX=0;exitY=0.75;exitDx=0;exitDy=0;" edge="1" parent="1" source="BzrFDkvv9F8TvWqhl2Q9-12">
          <mxGeometry width="50" height="50" relative="1" as="geometry">
            <mxPoint x="1080" y="-110" as="sourcePoint" />
            <mxPoint x="1130" y="420" as="targetPoint" />
            <Array as="points">
              <mxPoint x="1100" y="-110" />
              <mxPoint x="800" y="-110" />
              <mxPoint x="800" y="420" />
              <mxPoint x="1110" y="420" />
            </Array>
          </mxGeometry>
        </mxCell>
        <mxCell id="ujzDKPek5OF13hK7ME_E-28" value="&lt;span style=&quot;font-size: 36px;&quot;&gt;Forgot Password&lt;/span&gt;" style="text;html=1;align=center;verticalAlign=middle;whiteSpace=wrap;rounded=0;" vertex="1" parent="1">
          <mxGeometry x="1135" y="390" width="280" height="60" as="geometry" />
        </mxCell>
      </root>
    </mxGraphModel>
  </diagram>
</mxfile>
